<?xml version="1.0" standalone="no"?>
<!DOCTYPE svg PUBLIC "-//W3C//DTD SVG 20010904//EN"
 "http://www.w3.org/TR/2001/REC-SVG-20010904/DTD/svg10.dtd">
<svg version="1.0" xmlns="http://www.w3.org/2000/svg"
 width="512.000000pt" height="512.000000pt" viewBox="0 0 512.000000 512.000000"
 preserveAspectRatio="xMidYMid meet">
<metadata>
Created by potrace 1.14, written by Peter Selinger 2001-2017
</metadata>
<g transform="translate(0.000000,512.000000) scale(0.100000,-0.100000)"
fill="#000000" stroke="none">
<path d="M2304 5110 c-31 -12 -54 -49 -54 -86 0 -24 66 -144 257 -465 141
-239 273 -463 294 -499 l38 -65 -32 -7 c-18 -4 -54 -10 -82 -13 -27 -4 -53 -9
-56 -10 -3 -2 -28 -7 -55 -10 -27 -4 -57 -9 -66 -11 -10 -3 -28 -7 -40 -9 -13
-2 -65 -11 -116 -20 -51 -9 -98 -12 -105 -8 -7 4 -102 74 -211 156 -110 82
-211 153 -226 157 -14 4 -81 7 -148 6 -113 -2 -124 -4 -147 -26 -29 -27 -41
-75 -26 -110 6 -14 62 -104 125 -200 l115 -175 -732 -5 c-664 -5 -735 -7 -763
-22 -29 -16 -93 -81 -95 -96 0 -4 -3 -16 -5 -27 -9 -35 -10 -3368 -1 -3410 10
-51 40 -95 86 -126 l36 -24 416 -3 c387 -3 417 -2 437 15 12 10 25 32 28 50 5
26 1 37 -19 57 l-26 26 -394 0 c-346 0 -396 2 -408 16 -10 12 -13 250 -13
1236 -1 802 2 1222 9 1227 6 4 471 6 1035 6 809 -1 1024 -4 1022 -14 -1 -7
-52 -96 -112 -199 -61 -102 -110 -196 -110 -208 0 -38 21 -72 54 -87 47 -22
432 -19 466 4 14 9 105 95 204 190 98 96 212 205 252 244 l73 69 456 1 455 0
0 -1227 c0 -1102 -2 -1228 -16 -1242 -14 -14 -150 -16 -1344 -16 -731 0 -1336
-3 -1345 -6 -24 -9 -44 -55 -38 -87 12 -61 -78 -57 1393 -57 1286 0 1347 1
1385 19 48 22 79 54 100 103 13 33 15 213 15 1608 l0 1570 58 0 c99 1 132 10
321 86 203 81 236 100 270 152 27 41 41 126 28 168 -18 52 -64 108 -109 131
-62 31 -335 139 -385 152 -25 7 -141 12 -291 12 l-249 1 -94 90 c-52 49 -206
199 -343 331 -137 133 -275 267 -306 297 -31 30 -131 126 -220 214 -90 87
-178 165 -196 172 -38 16 -413 19 -450 4z m477 -223 c48 -45 208 -200 355
-343 148 -144 312 -303 364 -353 52 -51 147 -143 211 -206 64 -62 125 -118
136 -124 13 -6 119 -11 293 -11 284 -1 292 -2 395 -50 11 -5 67 -28 125 -51
120 -48 140 -62 140 -99 0 -15 -8 -34 -17 -42 -10 -8 -94 -46 -188 -84 l-170
-69 -542 -5 c-539 -5 -543 -5 -564 -27 -28 -28 -27 -68 1 -99 23 -24 27 -24
189 -24 l166 -1 -155 -151 c-85 -83 -269 -261 -409 -397 -139 -135 -277 -268
-305 -296 -28 -27 -85 -81 -125 -120 l-73 -70 -128 0 c-145 -1 -137 -8 -83 78
13 21 32 53 42 70 10 18 118 201 241 407 122 206 235 398 250 425 26 45 32 50
67 53 62 5 99 52 81 103 -12 35 -46 49 -119 49 -33 0 -111 9 -172 20 -224 39
-463 79 -492 83 -42 6 -55 -2 -275 -168 -107 -81 -204 -151 -215 -155 -19 -7
-72 -6 -81 2 -2 2 50 86 115 185 142 216 141 215 136 242 -5 26 5 9 -133 221
-63 96 -116 180 -119 186 -3 8 9 11 41 10 33 -1 57 -11 93 -36 26 -19 50 -37
53 -40 13 -17 324 -242 344 -250 13 -5 41 -5 62 0 35 7 126 24 194 35 14 2
105 18 204 34 170 30 191 31 467 31 195 0 296 4 313 11 48 22 51 99 5 127 -16
10 -79 13 -253 13 l-231 0 -21 32 c-22 34 -500 841 -534 901 l-20 36 128 0
127 0 86 -83z m-1037 -1339 c-5 -7 -54 -84 -111 -171 -57 -88 -106 -171 -109
-185 -7 -37 10 -78 42 -98 21 -15 50 -18 150 -19 68 0 131 2 141 6 15 6 378
273 421 310 10 8 52 4 165 -15 84 -14 163 -28 177 -31 14 -3 58 -10 98 -16 39
-6 72 -15 72 -19 0 -3 -69 -123 -153 -266 l-152 -259 -1079 0 c-625 0 -1080 4
-1083 9 -3 5 -6 171 -7 370 -1 331 0 362 17 379 16 16 64 17 718 17 557 0 699
-3 693 -12z m2374 -505 l-3 -258 -372 0 c-205 0 -373 2 -373 4 0 3 231 229
429 418 l96 93 113 0 112 0 -2 -257z"/>
<path d="M2924 3717 c-28 -16 -43 -39 -39 -62 2 -11 4 -23 4 -27 2 -17 35 -38
60 -38 53 0 86 54 61 100 -14 25 -61 41 -86 27z"/>
<path d="M3213 3719 c-44 -16 -56 -76 -23 -109 26 -26 72 -26 95 0 46 51 -8
133 -72 109z"/>
<path d="M3519 3718 c-35 -12 -52 -49 -38 -85 12 -33 26 -43 61 -43 32 0 68
34 68 65 0 26 -24 61 -47 67 -10 3 -30 1 -44 -4z"/>
<path d="M3803 3719 c-44 -16 -56 -76 -23 -109 28 -28 74 -26 99 5 42 55 -11
128 -76 104z"/>
<path d="M624 3402 c-52 -8 -65 -14 -77 -40 -18 -36 -11 -67 20 -92 24 -19 40
-20 229 -20 213 0 244 5 261 44 26 57 -13 105 -86 107 -161 3 -330 4 -347 1z"/>
<path d="M569 3088 c-41 -25 -43 -79 -4 -114 22 -21 32 -22 239 -20 208 1 216
2 237 23 32 32 30 81 -4 107 -25 18 -43 20 -234 21 -178 0 -210 -2 -234 -17z"/>
<path d="M741 1959 c-82 -24 -159 -99 -186 -180 -14 -40 -16 -102 -13 -401 3
-344 4 -354 26 -395 32 -60 94 -116 153 -137 45 -17 86 -18 389 -18 361 0 385
3 450 50 47 34 67 58 95 116 24 49 24 53 25 390 1 405 -2 420 -83 500 -85 84
-93 85 -484 85 -190 0 -353 -5 -372 -10z m716 -155 c72 -35 73 -39 73 -405 0
-323 0 -326 -23 -360 -40 -60 -47 -61 -385 -61 -169 -1 -321 2 -338 6 -17 4
-44 21 -60 37 l-29 30 -3 335 c-3 330 -2 336 19 371 37 59 50 61 397 62 275 1
317 -1 349 -15z"/>
<path d="M885 1585 c-14 -13 -25 -36 -25 -50 0 -14 11 -37 25 -50 24 -25 25
-25 225 -25 200 0 201 0 225 25 32 31 33 74 2 103 -22 21 -32 22 -226 22 -201
0 -202 0 -226 -25z"/>
<path d="M897 1304 c-44 -24 -46 -88 -3 -124 14 -11 166 -15 393 -11 63 2 94
72 54 122 -19 24 -22 24 -219 25 -149 1 -205 -2 -225 -12z"/>
<path d="M2942 1951 c-77 -27 -119 -66 -160 -151 l-26 -55 0 -350 -1 -351 28
-57 c17 -33 46 -71 71 -92 79 -65 94 -67 461 -67 182 0 346 3 365 7 87 18 178
102 204 188 10 35 13 124 12 394 l-1 348 -31 55 c-36 65 -105 121 -169 138
-31 8 -147 12 -373 12 -290 -1 -333 -3 -380 -19z m750 -156 c52 -39 53 -43 53
-399 0 -309 -1 -333 -19 -359 -39 -58 -50 -60 -402 -59 -296 0 -324 1 -354 18
-62 36 -65 54 -65 411 1 354 1 352 66 392 29 18 56 19 362 17 315 -1 333 -2
359 -21z"/>
<path d="M3095 1584 c-33 -35 -22 -93 21 -112 30 -15 381 -16 417 -3 35 13 51
64 32 101 -8 15 -22 30 -30 34 -9 3 -106 6 -216 6 l-200 0 -24 -26z"/>
<path d="M3104 1296 c-35 -29 -38 -73 -8 -103 25 -25 23 -25 291 -24 77 0 141
5 153 11 26 14 40 48 33 82 -9 48 -46 56 -256 56 -178 0 -190 -1 -213 -22z"/>
<path d="M2153 1882 c-19 -3 -73 -57 -194 -195 -29 -33 -36 -65 -20 -95 8 -16
99 -118 173 -194 46 -48 118 -30 132 33 5 25 -7 51 -47 94 -18 20 -18 20 127
25 159 5 170 10 182 66 4 21 0 37 -14 54 -19 24 -26 25 -167 30 l-146 5 30 34
c17 19 31 39 32 45 0 6 2 19 4 28 4 22 -28 64 -52 70 -10 2 -28 2 -40 0z"/>
<path d="M2232 1250 c-22 -9 -42 -46 -42 -78 0 -9 14 -32 30 -51 17 -18 30
-37 30 -40 0 -4 -55 -6 -122 -6 -68 1 -134 -3 -147 -7 -51 -18 -67 -76 -32
-119 18 -23 26 -24 143 -26 67 -1 134 -2 147 -2 23 -1 22 -2 -13 -41 -43 -47
-46 -81 -11 -115 44 -45 71 -35 158 58 95 99 137 154 137 178 0 36 -203 259
-235 258 -11 0 -30 -4 -43 -9z"/>
</g>
</svg>
